<svg width="34" height="35" viewBox="0 0 34 35" fill="none" xmlns="http://www.w3.org/2000/svg">
<rect y="0.5" width="34" height="34" rx="17" fill="#CCCCCE" fill-opacity="0.28"/>
<path d="M10.071 24.5711C9.40831 23.9084 9.40831 22.8339 10.071 22.1712L21.8133 10.429C22.476 9.76627 23.5504 9.76627 24.2132 10.429C24.8759 11.0917 24.8759 12.1661 24.2132 12.8289L12.4709 24.5711C11.8082 25.2338 10.7337 25.2338 10.071 24.5711ZM10.071 12.8289C9.40831 12.1661 9.40831 11.0917 10.071 10.429C10.7337 9.76627 11.8082 9.76627 12.4709 10.429L24.2132 22.1712C24.8759 22.8339 24.8759 23.9084 24.2132 24.5711C23.5504 25.2338 22.476 25.2338 21.8133 24.5711L10.071 12.8289Z" fill="white"/>
</svg>
